<svg width="40" height="40" viewBox="0 0 40 40" fill="none" xmlns="http://www.w3.org/2000/svg">
<path d="M7 2.5H27.793L37.5 12.207V33C37.5 35.4853 35.4853 37.5 33 37.5H7C4.51472 37.5 2.5 35.4853 2.5 33V7C2.5 4.51472 4.51472 2.5 7 2.5Z" fill="#D9D9D9" stroke="#333333"/>
<path d="M8.32801 21.5584C8.16026 21.53 7.73051 21.4158 7.37476 21.3124L6.72651 21.1196L7.05901 20.4704L7.39126 19.8212L7.12276 19.4679C6.74326 18.9686 6.25326 17.8737 6.25001 17.5209C6.24651 16.6967 7.25351 15.5019 8.48901 14.8599C9.33826 14.4176 10.013 14.407 10.859 14.828L11.4968 15.1452L11.6815 14.8636C11.782 14.7101 11.866 14.5069 11.866 14.4176C11.866 14.3284 11.95 14.25 12.0508 14.25C12.1515 14.25 12.2353 14.2784 12.2353 14.3106C12.2353 14.3892 11.4935 16.3793 11.4465 16.4292C11.4263 16.4504 11.2248 16.3508 10.9965 16.2082C10.352 15.805 9.54301 15.5375 8.91526 15.5197C7.45501 15.4804 6.94801 16.9966 7.97876 18.3231L8.34126 18.7906L9.33151 17.9379C10.4428 16.9857 10.5703 16.9642 11.4365 17.5993C12.4098 18.3125 12.4265 19.3967 11.4865 20.531C10.654 21.5403 9.79826 21.8187 8.32776 21.5581L8.32801 21.5584ZM10.819 20.4707C11.3023 20.0677 11.2688 19.3221 10.745 18.73C10.087 17.9881 9.88251 18.0203 8.72426 19.0475C7.57276 20.0675 7.56601 20.0284 8.94251 20.4956C9.85201 20.8093 10.4228 20.7987 10.819 20.4707ZM20.1715 24.4011C19.8423 24.2728 18.956 23.884 18.1975 23.5344C16.1498 22.5856 15.861 22.5678 15.25 23.3562C15.109 23.5381 14.9548 23.6521 14.911 23.6058C14.78 23.4667 15.1695 22.7997 15.6395 22.3611C16.022 22.0044 16.1495 21.9545 16.5728 22.0044C16.8413 22.0363 17.7343 22.3683 18.5565 22.7391C20.413 23.5772 20.9568 23.7557 21.6653 23.7557C22.5278 23.7557 22.971 23.1136 22.699 22.2612C22.632 22.0472 22.652 21.9757 22.7865 21.9757C23.038 21.9757 23.1658 22.9745 22.9845 23.5487C22.907 23.7947 22.6823 24.1443 22.4843 24.319C22.1888 24.5831 22.0008 24.6402 21.4468 24.6365C21.0743 24.633 20.5005 24.5297 20.1715 24.4011ZM15.3878 21.3518C14.6258 20.9735 13.9375 20.2531 13.5413 19.4114C12.907 18.063 13.1015 17.2 14.3035 16.0337C15.3138 15.0527 16.1398 14.671 17.251 14.671C18.053 14.671 18.2243 14.7175 18.7445 15.0562C19.9765 15.8661 20.282 17.4104 19.5403 19.0937C18.6708 21.0699 16.8345 22.0652 15.3878 21.3518ZM17.939 20.4136C18.5095 20.1139 18.9025 18.73 18.7413 17.5815C18.5398 16.1657 16.7373 15.1988 15.4145 15.7983C14.055 16.4154 14.0348 18.0596 15.371 19.5397C16.304 20.5777 17.1065 20.8487 17.939 20.4136ZM20.5273 21.6121C20.5273 21.5512 20.7385 21.4445 21.0005 21.3765L21.4738 21.2516L21.5745 19.44C21.6853 17.4354 21.6045 15.4628 21.4 15.1991C21.326 15.1061 21.1013 14.9919 20.8965 14.9422C20.064 14.7459 20.6178 14.6105 22.2325 14.6105C23.8473 14.6105 24.3608 14.7353 23.592 14.9422C22.9308 15.117 22.9273 15.1276 22.9273 17.9881C22.9273 19.5753 22.981 20.7703 23.0583 20.9236C23.1658 21.1377 23.3268 21.1839 23.9445 21.1839C25.22 21.1839 25.6598 20.863 26.0058 19.6751C26.1098 19.3187 26.3783 19.3829 26.2843 19.7431C26.2405 19.9105 26.1703 20.4205 26.1265 20.8843L26.046 21.7226H23.2865C21.769 21.7226 20.5273 21.6726 20.5273 21.6121Z" fill="#333333"/>
<path d="M26.7945 21.5263C26.7945 21.4195 26.892 21.3124 27.053 21.2304C27.268 21.1233 27.4088 20.8986 27.919 19.8393C28.728 18.1632 30.0038 15.2846 30.1245 14.853C30.2185 14.5249 30.2388 14.5071 30.5878 14.4644C30.7893 14.4394 30.957 14.425 30.9603 14.4322C30.9638 14.4394 31.2425 15.0883 31.5815 15.8767C31.9173 16.6648 32.592 18.1629 33.082 19.2044C33.9013 20.9557 33.992 21.1127 34.267 21.2551C34.435 21.3409 34.5658 21.4729 34.5658 21.5512C34.5658 21.6761 34.4215 21.6904 33.1795 21.6904C31.934 21.6904 31.793 21.6761 31.793 21.5478C31.793 21.4622 31.9005 21.3695 32.0715 21.3087C32.2295 21.2553 32.3503 21.1555 32.3503 21.0805C32.3503 21.0091 32.1858 20.5384 31.9843 20.0356L31.6185 19.1189H28.8455L28.5805 19.7394C28.0835 20.9023 28.0735 21.177 28.5368 21.3087C28.7685 21.3765 28.8323 21.4301 28.8053 21.5406C28.7753 21.6692 28.6543 21.6867 27.7815 21.6867C26.8448 21.6941 26.7945 21.6867 26.7945 21.5263ZM31.3398 18.6408C31.3868 18.5518 30.3428 16.1298 30.2455 16.1049C30.175 16.0836 29.094 18.4519 29.094 18.6302C29.094 18.7194 31.2895 18.73 31.3398 18.6408Z" fill="#CA2727"/>
<path d="M14.0466 27.8C14.0626 27.888 14.0706 27.962 14.0706 28.022C14.0706 28.138 14.0486 28.224 14.0046 28.28C13.9646 28.332 13.9006 28.358 13.8126 28.358H12.9126V32H12.1566V28.358H11.0226V27.8H14.0466ZM16.0254 32.06C15.4574 32.06 15.0154 31.87 14.6994 31.49C14.3874 31.106 14.2314 30.568 14.2314 29.876C14.2314 29.196 14.3874 28.67 14.6994 28.298C15.0154 27.926 15.4574 27.74 16.0254 27.74C16.5934 27.74 17.0334 27.926 17.3454 28.298C17.6614 28.67 17.8194 29.196 17.8194 29.876C17.8194 30.568 17.6614 31.106 17.3454 31.49C17.0334 31.87 16.5934 32.06 16.0254 32.06ZM16.0254 31.49C16.3694 31.49 16.6234 31.36 16.7874 31.1C16.9554 30.836 17.0394 30.428 17.0394 29.876C17.0394 29.336 16.9574 28.94 16.7934 28.688C16.6294 28.436 16.3734 28.31 16.0254 28.31C15.6774 28.31 15.4214 28.436 15.2574 28.688C15.0934 28.94 15.0114 29.336 15.0114 29.876C15.0114 30.428 15.0934 30.836 15.2574 31.1C15.4254 31.36 15.6814 31.49 16.0254 31.49ZM20.1035 32.06C19.5355 32.06 19.0935 31.87 18.7775 31.49C18.4655 31.106 18.3095 30.568 18.3095 29.876C18.3095 29.196 18.4655 28.67 18.7775 28.298C19.0935 27.926 19.5355 27.74 20.1035 27.74C20.6715 27.74 21.1115 27.926 21.4235 28.298C21.7395 28.67 21.8975 29.196 21.8975 29.876C21.8975 30.568 21.7395 31.106 21.4235 31.49C21.1115 31.87 20.6715 32.06 20.1035 32.06ZM20.1035 31.49C20.4475 31.49 20.7015 31.36 20.8655 31.1C21.0335 30.836 21.1175 30.428 21.1175 29.876C21.1175 29.336 21.0355 28.94 20.8715 28.688C20.7075 28.436 20.4515 28.31 20.1035 28.31C19.7555 28.31 19.4995 28.436 19.3355 28.688C19.1715 28.94 19.0895 29.336 19.0895 29.876C19.0895 30.428 19.1715 30.836 19.3355 31.1C19.5035 31.36 19.7595 31.49 20.1035 31.49ZM25.1296 31.454V32H22.6576V27.8H23.4196V31.454H25.1296ZM27.1918 32.06C26.8798 32.06 26.6058 32.022 26.3698 31.946C26.1338 31.866 25.9518 31.754 25.8238 31.61C25.6958 31.466 25.6318 31.3 25.6318 31.112C25.6318 30.988 25.6798 30.892 25.7758 30.824C25.8758 30.756 26.0138 30.72 26.1898 30.716C26.2258 30.964 26.3318 31.156 26.5078 31.292C26.6838 31.428 26.9158 31.496 27.2038 31.496C27.4798 31.496 27.6918 31.44 27.8398 31.328C27.9918 31.216 28.0678 31.056 28.0678 30.848C28.0678 30.68 27.9938 30.544 27.8458 30.44C27.7018 30.332 27.4458 30.228 27.0778 30.128C26.5898 29.992 26.2398 29.828 26.0278 29.636C25.8158 29.444 25.7098 29.194 25.7098 28.886C25.7098 28.53 25.8438 28.25 26.1118 28.046C26.3838 27.842 26.7558 27.74 27.2278 27.74C27.6198 27.74 27.9498 27.832 28.2178 28.016C28.4898 28.2 28.6758 28.456 28.7758 28.784C28.7238 28.836 28.6498 28.882 28.5538 28.922C28.4578 28.962 28.3718 28.982 28.2958 28.982C28.2278 28.982 28.1738 28.968 28.1338 28.94C28.0938 28.908 28.0538 28.856 28.0138 28.784C27.8538 28.46 27.5918 28.298 27.2278 28.298C26.7278 28.298 26.4778 28.474 26.4778 28.826C26.4778 28.942 26.5018 29.038 26.5498 29.114C26.5978 29.186 26.6818 29.252 26.8018 29.312C26.9218 29.372 27.0978 29.438 27.3298 29.51C27.7418 29.638 28.0538 29.758 28.2658 29.87C28.4778 29.978 28.6278 30.098 28.7158 30.23C28.8038 30.358 28.8478 30.522 28.8478 30.722C28.8478 30.986 28.7798 31.22 28.6438 31.424C28.5078 31.624 28.3138 31.78 28.0618 31.892C27.8138 32.004 27.5238 32.06 27.1918 32.06Z" fill="#656565"/>
<path d="M27.5 2.5L37.5 12.5H30.5C28.8431 12.5 27.5 11.1569 27.5 9.5V2.5Z" fill="#BA7C7C" stroke="#333333" stroke-linejoin="round"/>
</svg>
