<svg width="40" height="40" viewBox="0 0 40 40" fill="none" xmlns="http://www.w3.org/2000/svg">
<path d="M7 2.5H27.793L37.5 12.207V33C37.5 35.4853 35.4853 37.5 33 37.5H7C4.51472 37.5 2.5 35.4853 2.5 33V7C2.5 4.51472 4.51472 2.5 7 2.5Z" fill="#D9D9D9" stroke="#333333"/>
<path d="M8.32801 22.5584C8.16026 22.53 7.73051 22.4158 7.37476 22.3124L6.72651 22.1196L7.05901 21.4704L7.39126 20.8212L7.12276 20.4679C6.74326 19.9686 6.25326 18.8737 6.25001 18.5209C6.24651 17.6967 7.25351 16.5019 8.48901 15.8599C9.33826 15.4176 10.013 15.407 10.859 15.828L11.4968 16.1452L11.6815 15.8636C11.782 15.7101 11.866 15.5069 11.866 15.4176C11.866 15.3284 11.95 15.25 12.0508 15.25C12.1515 15.25 12.2353 15.2784 12.2353 15.3106C12.2353 15.3892 11.4935 17.3793 11.4465 17.4292C11.4263 17.4504 11.2248 17.3508 10.9965 17.2082C10.352 16.805 9.54301 16.5375 8.91526 16.5197C7.45501 16.4804 6.94801 17.9966 7.97876 19.3231L8.34126 19.7906L9.33151 18.9379C10.4428 17.9857 10.5703 17.9642 11.4365 18.5993C12.4098 19.3125 12.4265 20.3967 11.4865 21.531C10.654 22.5403 9.79826 22.8187 8.32776 22.5581L8.32801 22.5584ZM10.819 21.4707C11.3023 21.0677 11.2688 20.3221 10.745 19.73C10.087 18.9881 9.88251 19.0203 8.72426 20.0475C7.57276 21.0675 7.56601 21.0284 8.94251 21.4956C9.85201 21.8093 10.4228 21.7987 10.819 21.4707ZM20.1715 25.4011C19.8423 25.2728 18.956 24.884 18.1975 24.5344C16.1498 23.5856 15.861 23.5678 15.25 24.3562C15.109 24.5381 14.9548 24.6521 14.911 24.6058C14.78 24.4667 15.1695 23.7997 15.6395 23.3611C16.022 23.0044 16.1495 22.9545 16.5728 23.0044C16.8413 23.0363 17.7343 23.3683 18.5565 23.7391C20.413 24.5772 20.9568 24.7557 21.6653 24.7557C22.5278 24.7557 22.971 24.1136 22.699 23.2612C22.632 23.0472 22.652 22.9757 22.7865 22.9757C23.038 22.9757 23.1658 23.9745 22.9845 24.5487C22.907 24.7947 22.6823 25.1443 22.4843 25.319C22.1888 25.5831 22.0008 25.6402 21.4468 25.6365C21.0743 25.633 20.5005 25.5297 20.1715 25.4011ZM15.3878 22.3518C14.6258 21.9735 13.9375 21.2531 13.5413 20.4114C12.907 19.063 13.1015 18.2 14.3035 17.0337C15.3138 16.0527 16.1398 15.671 17.251 15.671C18.053 15.671 18.2243 15.7175 18.7445 16.0562C19.9765 16.8661 20.282 18.4104 19.5403 20.0937C18.6708 22.0699 16.8345 23.0652 15.3878 22.3518ZM17.939 21.4136C18.5095 21.1139 18.9025 19.73 18.7413 18.5815C18.5398 17.1657 16.7373 16.1988 15.4145 16.7983C14.055 17.4154 14.0348 19.0596 15.371 20.5397C16.304 21.5777 17.1065 21.8487 17.939 21.4136ZM20.5273 22.6121C20.5273 22.5512 20.7385 22.4445 21.0005 22.3765L21.4738 22.2516L21.5745 20.44C21.6853 18.4354 21.6045 16.4628 21.4 16.1991C21.326 16.1061 21.1013 15.9919 20.8965 15.9422C20.064 15.7459 20.6178 15.6105 22.2325 15.6105C23.8473 15.6105 24.3608 15.7353 23.592 15.9422C22.9308 16.117 22.9273 16.1276 22.9273 18.9881C22.9273 20.5753 22.981 21.7703 23.0583 21.9236C23.1658 22.1377 23.3268 22.1839 23.9445 22.1839C25.22 22.1839 25.6598 21.863 26.0058 20.6751C26.1098 20.3187 26.3783 20.3829 26.2843 20.7431C26.2405 20.9105 26.1703 21.4205 26.1265 21.8843L26.046 22.7226H23.2865C21.769 22.7226 20.5273 22.6726 20.5273 22.6121Z" fill="#333333"/>
<path d="M26.7945 22.5263C26.7945 22.4195 26.892 22.3124 27.053 22.2304C27.268 22.1233 27.4088 21.8986 27.919 20.8393C28.728 19.1632 30.0038 16.2846 30.1245 15.853C30.2185 15.5249 30.2388 15.5071 30.5878 15.4644C30.7893 15.4394 30.957 15.425 30.9603 15.4322C30.9638 15.4394 31.2425 16.0883 31.5815 16.8767C31.9173 17.6648 32.592 19.1629 33.082 20.2044C33.9013 21.9557 33.992 22.1127 34.267 22.2551C34.435 22.3409 34.5658 22.4729 34.5658 22.5512C34.5658 22.6761 34.4215 22.6904 33.1795 22.6904C31.934 22.6904 31.793 22.6761 31.793 22.5478C31.793 22.4622 31.9005 22.3695 32.0715 22.3087C32.2295 22.2553 32.3503 22.1555 32.3503 22.0805C32.3503 22.0091 32.1858 21.5384 31.9843 21.0356L31.6185 20.1189H28.8455L28.5805 20.7394C28.0835 21.9023 28.0735 22.177 28.5368 22.3087C28.7685 22.3765 28.8323 22.4301 28.8053 22.5406C28.7753 22.6692 28.6543 22.6867 27.7815 22.6867C26.8448 22.6941 26.7945 22.6867 26.7945 22.5263ZM31.3398 19.6408C31.3868 19.5518 30.3428 17.1298 30.2455 17.1049C30.175 17.0836 29.094 19.4519 29.094 19.6302C29.094 19.7194 31.2895 19.73 31.3398 19.6408Z" fill="#CA2727"/>
<path d="M9.10867 28.5C9.12201 28.5733 9.12867 28.635 9.12867 28.685C9.12867 28.7817 9.11034 28.8533 9.07367 28.9C9.04034 28.9433 8.98701 28.965 8.91367 28.965H8.16367V32H7.53367V28.965H6.58867V28.5H9.10867ZM11.7446 31.545C11.7446 31.7217 11.7262 31.8417 11.6896 31.905C11.6529 31.9683 11.5846 32 11.4846 32H9.54957V28.5H11.7046V28.955H10.1796V29.975H11.4646V30.425H10.1796V31.545H11.7446ZM15.2524 32C15.2458 31.3967 15.2258 30.8833 15.1924 30.46C15.1591 30.0333 15.1058 29.615 15.0324 29.205C14.9024 29.5483 14.7908 29.8717 14.6974 30.175C14.6041 30.4783 14.4791 30.925 14.3224 31.515H13.8274C13.6908 30.975 13.5741 30.5467 13.4774 30.23C13.3841 29.91 13.2691 29.5683 13.1324 29.205C13.0624 29.615 13.0091 30.0333 12.9724 30.46C12.9391 30.8867 12.9158 31.4 12.9024 32H12.2774C12.2908 31.2933 12.3308 30.6633 12.3974 30.11C12.4674 29.5533 12.5741 29.0167 12.7174 28.5H13.4224C13.5991 28.93 13.7308 29.2783 13.8174 29.545C13.9074 29.8083 13.9924 30.105 14.0724 30.435C14.1558 30.1117 14.2424 29.82 14.3324 29.56C14.4258 29.2967 14.5624 28.9433 14.7424 28.5H15.4474C15.5974 29.02 15.7074 29.5583 15.7774 30.115C15.8474 30.6717 15.8858 31.3 15.8924 32H15.2524ZM17.6516 28.5C18.1083 28.5 18.4533 28.5967 18.6866 28.79C18.9233 28.98 19.0416 29.26 19.0416 29.63C19.0416 30.0133 18.9216 30.3067 18.6816 30.51C18.4416 30.71 18.0983 30.81 17.6516 30.81H17.2116V32H16.5766V28.5H17.6516ZM17.6166 30.33C17.89 30.33 18.0883 30.275 18.2116 30.165C18.3383 30.055 18.4016 29.8767 18.4016 29.63C18.4016 29.39 18.34 29.2167 18.2166 29.11C18.0933 29.0033 17.8933 28.95 17.6166 28.95H17.2116V30.33H17.6166ZM21.7478 31.545V32H19.6878V28.5H20.3228V31.545H21.7478ZM24.3563 32C24.3063 31.7033 24.248 31.3983 24.1813 31.085H22.6963C22.6296 31.3983 22.5713 31.7033 22.5213 32H21.8963C21.9963 31.36 22.1463 30.7533 22.3463 30.18C22.5463 29.6033 22.8046 29.0433 23.1213 28.5H23.7613C24.0746 29.04 24.3313 29.5983 24.5313 30.175C24.7313 30.7483 24.8813 31.3567 24.9813 32H24.3563ZM24.0663 30.62C23.9096 30.0433 23.6996 29.5033 23.4363 29C23.173 29.51 22.9646 30.05 22.8113 30.62H24.0663ZM27.4046 28.5C27.4179 28.5733 27.4246 28.635 27.4246 28.685C27.4246 28.7817 27.4062 28.8533 27.3696 28.9C27.3362 28.9433 27.2829 28.965 27.2096 28.965H26.4596V32H25.8296V28.965H24.8846V28.5H27.4046ZM30.0405 31.545C30.0405 31.7217 30.0221 31.8417 29.9855 31.905C29.9488 31.9683 29.8805 32 29.7805 32H27.8455V28.5H30.0005V28.955H28.4755V29.975H29.7605V30.425H28.4755V31.545H30.0405ZM31.9233 32.05C31.6633 32.05 31.435 32.0183 31.2383 31.955C31.0417 31.8883 30.89 31.795 30.7833 31.675C30.6767 31.555 30.6233 31.4167 30.6233 31.26C30.6233 31.1567 30.6633 31.0767 30.7433 31.02C30.8267 30.9633 30.9417 30.9333 31.0883 30.93C31.1183 31.1367 31.2067 31.2967 31.3533 31.41C31.5 31.5233 31.6933 31.58 31.9333 31.58C32.1633 31.58 32.34 31.5333 32.4633 31.44C32.59 31.3467 32.6533 31.2133 32.6533 31.04C32.6533 30.9 32.5917 30.7867 32.4683 30.7C32.3483 30.61 32.135 30.5233 31.8283 30.44C31.4217 30.3267 31.13 30.19 30.9533 30.03C30.7767 29.87 30.6883 29.6617 30.6883 29.405C30.6883 29.1083 30.8 28.875 31.0233 28.705C31.25 28.535 31.56 28.45 31.9533 28.45C32.28 28.45 32.555 28.5267 32.7783 28.68C33.005 28.8333 33.16 29.0467 33.2433 29.32C33.2 29.3633 33.1383 29.4017 33.0583 29.435C32.9783 29.4683 32.9067 29.485 32.8433 29.485C32.7867 29.485 32.7417 29.4733 32.7083 29.45C32.675 29.4233 32.6417 29.38 32.6083 29.32C32.475 29.05 32.2567 28.915 31.9533 28.915C31.5367 28.915 31.3283 29.0617 31.3283 29.355C31.3283 29.4517 31.3483 29.5317 31.3883 29.595C31.4283 29.655 31.4983 29.71 31.5983 29.76C31.6983 29.81 31.845 29.865 32.0383 29.925C32.3817 30.0317 32.6417 30.1317 32.8183 30.225C32.995 30.315 33.12 30.415 33.1933 30.525C33.2667 30.6317 33.3033 30.7683 33.3033 30.935C33.3033 31.155 33.2467 31.35 33.1333 31.52C33.02 31.6867 32.8583 31.8167 32.6483 31.91C32.4417 32.0033 32.2 32.05 31.9233 32.05Z" fill="#656565"/>
<path d="M27.5 2.5L37.5 12.5H30.5C28.8431 12.5 27.5 11.1569 27.5 9.5V2.5Z" fill="#BA7C7C" stroke="#333333" stroke-linejoin="round"/>
</svg>
