<svg width="40" height="40" viewBox="0 0 40 40" fill="none" xmlns="http://www.w3.org/2000/svg">
<path d="M10.5041 28H7.35087C7.57432 28.5208 7.63356 28.9521 7.54053 29.3436C7.45398 29.7108 7.2568 29.9811 6.72016 30.4684C6.29595 30.8595 6.14855 31.0485 6.0809 31.2937C6.03968 31.4482 6.03854 31.4936 6.0905 31.7101C6.16446 32.0056 6.27703 32.1985 6.62258 32.6217C6.85226 32.9009 7.31048 33.3542 7.52489 33.5196C7.57571 33.5556 7.7303 33.6601 7.86872 33.7473C8.3398 34.0409 8.7367 34.0631 9.08357 33.8141C9.16297 33.7559 9.3917 33.5293 9.59481 33.3088C10.118 32.7403 10.3233 32.5916 10.7077 32.4993C11.1264 32.3988 11.5718 32.4726 12.2015 32.7492C12.6628 32.9517 13.0109 33.1724 13.3356 33.471C13.6878 33.7961 13.8647 34.0941 13.9273 34.4676C13.9838 34.8035 13.9346 35.1256 13.7432 35.6957C13.6942 35.8431 13.6317 36.072 13.6027 36.2024C13.5574 36.4151 13.5576 36.4663 13.6062 36.6685C13.6774 36.9527 13.7785 37.085 14.0828 37.2861C14.6264 37.6436 15.5089 37.9318 16.2585 37.9928C16.47 38.0083 16.5738 38.0014 16.8045 37.9461C17.0529 37.8894 17.105 37.8679 17.2017 37.7814C17.4087 37.6022 17.4958 37.4005 17.6491 36.7341C17.735 36.364 17.8304 36.0338 17.8891 35.9143C18.0854 35.5026 18.4211 35.2323 18.9191 35.0856C19.2368 34.9912 20.0399 34.8737 20.3013 34.8833C20.9539 34.9043 21.5226 35.0901 21.8311 35.3715C22.1494 35.6686 22.2951 35.974 22.431 36.6282C22.5994 37.4554 22.7744 37.7327 23.1995 37.8596C23.3745 37.9109 23.858 37.9425 24.1416 37.9195C24.4701 37.8949 25.3482 37.6509 25.6808 37.4927C26.1703 37.2607 26.4423 36.9635 26.4888 36.6179C26.5125 36.4405 26.4418 36.108 26.2336 35.429C26.031 34.7607 26.0583 34.4228 26.344 33.9565C26.5323 33.6492 26.6434 33.5352 27.1429 33.1441C27.6152 32.7777 27.7432 32.6957 28.0441 32.5693C28.7445 32.2746 29.2879 32.2797 29.783 32.5855C30.0027 32.7226 30.1386 32.8496 30.6386 33.3893C30.8545 33.6236 31.1227 33.8123 31.302 33.8566C31.5579 33.9187 32.0188 33.7809 32.429 33.5197C32.8313 33.2634 33.431 32.6495 33.7186 32.2039C33.857 31.9899 33.9121 31.8682 33.9536 31.6896C34.0025 31.467 34.0006 31.4463 33.9386 31.2383C33.8496 30.9554 33.7717 30.8566 33.292 30.4145C32.8666 30.0226 32.7429 29.8836 32.611 29.6351C32.5 29.4238 32.457 29.2323 32.4603 28.9573C32.4635 28.6797 32.5126 28.463 32.6835 28H29.3161C28.6542 28.768 27.8945 29.4588 27.0476 30.0491C25.8635 30.8757 24.7467 31.4059 23.3363 31.8168C20.2662 32.7046 16.9455 32.3602 14.0925 30.8522C12.7095 30.1209 11.5005 29.1546 10.5041 28Z" fill="#333333"/>
<path d="M10.3797 12C11.9479 10.1294 13.797 8.87626 16.1718 8.08178C16.593 7.94149 17.9547 7.64163 18.417 7.58486C19.8614 7.41579 21.1893 7.47653 22.5526 7.77277C24.0619 8.10022 25.294 8.60269 26.5991 9.42201C27.7276 10.1317 28.7099 10.9958 29.5345 12H32.6245C32.598 11.9406 32.5725 11.8803 32.5482 11.8194C32.2241 11.0086 32.3196 10.3651 32.8461 9.82293C32.9157 9.74899 33.1221 9.55483 33.2998 9.39166C33.6759 9.05131 33.8149 8.85226 33.8634 8.60263C33.9336 8.24236 33.7876 7.89784 33.3338 7.35008C32.5463 6.40346 31.7639 5.90449 31.2627 6.02484C31.0035 6.08707 30.8482 6.20568 30.4241 6.65997C30.206 6.89309 29.9679 7.13101 29.8949 7.19071C29.2258 7.71588 28.4074 7.64428 27.2863 6.96452C26.5284 6.50485 26.1614 6.09289 26.0343 5.56311C25.9447 5.18998 25.9733 4.94514 26.19 4.25446C26.3737 3.67714 26.3966 3.50897 26.34 3.26049C26.2962 3.0782 26.2711 3.02397 26.1664 2.90149C25.9149 2.60642 25.3023 2.32574 24.5006 2.13564C23.8903 1.98996 23.5411 1.96538 23.2015 2.04391C22.691 2.16346 22.5635 2.3477 22.3473 3.29132C22.2266 3.81736 22.1834 3.95123 22.07 4.15621C21.7643 4.70254 21.2026 4.98503 20.3013 5.04479C19.2159 5.11563 18.3733 4.89318 17.9833 4.43553C17.7564 4.16769 17.7189 4.07427 17.5054 3.27299C17.3202 2.57641 17.2987 2.51227 17.2075 2.39561C17.0067 2.13654 16.691 2.01351 16.247 2.02072C16.0033 2.02199 14.9498 2.25085 14.6404 2.36731C14.1015 2.56901 13.7576 2.80522 13.608 3.07309C13.4375 3.37913 13.4491 3.57817 13.6982 4.36487C13.8934 4.98978 13.9226 5.21172 13.849 5.55774C13.7433 6.07114 13.3505 6.52998 12.6402 6.97164C12.035 7.34892 11.3984 7.5831 10.9771 7.58484C10.4799 7.58374 10.0754 7.3796 9.64295 6.90806C9.15419 6.37773 9.07182 6.2981 8.9129 6.2007C8.5562 5.98208 8.21421 6.01298 7.7483 6.3056C7.17018 6.67034 6.39103 7.49004 6.14477 7.99501C6.00205 8.29137 5.98304 8.42547 6.05004 8.7046C6.12183 9.00367 6.21868 9.13104 6.70959 9.58253C7.0998 9.9407 7.26078 10.122 7.37528 10.3355C7.61127 10.7753 7.5867 11.3385 7.30739 12H10.3797Z" fill="#333333"/>
<g clip-path="url(#clip0_29_102)">
<path d="M5.16001 23.778C4.95032 23.7429 4.41314 23.6018 3.96845 23.4742L3.15814 23.236L3.57376 22.434L3.98907 21.6321L3.65345 21.1957C3.17907 20.5788 2.56657 19.2263 2.56251 18.7905C2.55814 17.7724 3.81689 16.2965 5.36126 15.5034C6.42282 14.957 7.26626 14.9439 8.32376 15.464L9.12095 15.8558L9.35189 15.508C9.47751 15.3183 9.58251 15.0673 9.58251 14.957C9.58251 14.8468 9.68751 14.75 9.81345 14.75C9.93939 14.75 10.0441 14.7851 10.0441 14.8248C10.0441 14.9219 9.11689 17.3803 9.05814 17.4419C9.03282 17.4682 8.78095 17.3451 8.49564 17.1689C7.69001 16.6708 6.67876 16.3404 5.89407 16.3184C4.06876 16.2699 3.43501 18.1428 4.72345 19.7815L5.17657 20.359L6.41439 19.3057C7.80345 18.1294 7.96282 18.1028 9.04564 18.8873C10.2622 19.7683 10.2831 21.1077 9.10814 22.5088C8.06751 23.7557 6.99782 24.0996 5.1597 23.7777L5.16001 23.778ZM8.27376 22.4344C8.87782 21.9366 8.83595 21.0155 8.18126 20.2842C7.35876 19.3677 7.10314 19.4074 5.65532 20.6763C4.21595 21.9363 4.20751 21.888 5.92814 22.4652C7.06501 22.8527 7.77845 22.8396 8.27376 22.4344ZM19.9644 27.2896C19.5528 27.1311 18.445 26.6508 17.4969 26.219C14.9372 25.0469 14.5763 25.0249 13.8125 25.9988C13.6363 26.2235 13.4434 26.3643 13.3888 26.3072C13.225 26.1353 13.7119 25.3114 14.2994 24.7696C14.7775 24.329 14.9369 24.2673 15.4659 24.329C15.8016 24.3683 16.9178 24.7785 17.9456 25.2365C20.2663 26.2718 20.9459 26.4923 21.8316 26.4923C22.9097 26.4923 23.4638 25.6992 23.1238 24.6462C23.04 24.3818 23.065 24.2935 23.2331 24.2935C23.5475 24.2935 23.7072 25.5273 23.4806 26.2367C23.3838 26.5405 23.1028 26.9723 22.8553 27.1882C22.486 27.5144 22.2509 27.5849 21.5584 27.5803C21.0928 27.5761 20.3756 27.4484 19.9644 27.2896ZM13.9847 23.5228C13.0322 23.0555 12.1719 22.1656 11.6766 21.1258C10.8838 19.4602 11.1269 18.3942 12.6294 16.9534C13.8922 15.7416 14.9247 15.2701 16.3138 15.2701C17.3163 15.2701 17.5303 15.3275 18.1806 15.7459C19.7206 16.7463 20.1025 18.654 19.1753 20.7334C18.0884 23.1746 15.7931 24.4041 13.9847 23.5228ZM17.1738 22.3638C17.8869 21.9937 18.3781 20.2842 18.1766 18.8653C17.9247 17.1164 15.6716 15.9221 14.0181 16.6626C12.3188 17.4249 12.2934 19.456 13.9638 21.2843C15.13 22.5666 16.1331 22.9013 17.1738 22.3638ZM20.4091 23.8443C20.4091 23.7692 20.6731 23.6373 21.0006 23.5533L21.5922 23.399L21.7181 21.1612C21.8566 18.6849 21.7556 16.2482 21.5 15.9224C21.4075 15.8075 21.1266 15.6665 20.8706 15.6051C19.83 15.3626 20.5222 15.1953 22.5406 15.1953C24.5591 15.1953 25.201 15.3495 24.24 15.6051C23.4135 15.821 23.4091 15.8341 23.4091 19.3677C23.4091 21.3283 23.4763 22.8045 23.5728 22.9938C23.7072 23.2583 23.9084 23.3154 24.6806 23.3154C26.275 23.3154 26.8247 22.919 27.2572 21.4516C27.3872 21.0113 27.7228 21.0907 27.6053 21.5356C27.5506 21.7423 27.4628 22.3723 27.4081 22.9453L27.3075 23.9808H23.8581C21.9613 23.9808 20.4091 23.9191 20.4091 23.8443Z" fill="#333333"/>
<path d="M28.2431 23.7383C28.2431 23.6064 28.365 23.4742 28.5663 23.3728C28.835 23.2406 29.0109 22.963 29.6488 21.6544C30.66 19.5839 32.2547 16.028 32.4056 15.4948C32.5231 15.0896 32.5484 15.0676 32.9847 15.0148C33.2366 14.984 33.4463 14.9662 33.4503 14.9751C33.4547 14.984 33.8031 15.7856 34.2269 16.7594C34.6466 17.733 35.49 19.5836 36.1025 20.8702C37.1266 23.0335 37.24 23.2274 37.5838 23.4033C37.7938 23.5093 37.9572 23.6724 37.9572 23.7692C37.9572 23.9234 37.7769 23.9411 36.2244 23.9411C34.6675 23.9411 34.4913 23.9234 34.4913 23.7649C34.4913 23.6593 34.6256 23.5447 34.8394 23.4696C35.0369 23.4036 35.1878 23.2803 35.1878 23.1877C35.1878 23.0995 34.9822 22.518 34.7303 21.8969L34.2731 20.7645H30.8069L30.4756 21.531C29.8544 22.9676 29.8419 23.3068 30.4209 23.4696C30.7106 23.5533 30.7903 23.6195 30.7566 23.756C30.7191 23.9149 30.5678 23.9365 29.4769 23.9365C28.3059 23.9457 28.2431 23.9365 28.2431 23.7383ZM33.9247 20.1739C33.9834 20.064 32.6784 17.0721 32.5569 17.0413C32.4688 17.015 31.1175 19.9406 31.1175 20.1608C31.1175 20.271 33.8619 20.2842 33.9247 20.1739Z" fill="#CA2727"/>
</g>
<defs>
<clipPath id="clip0_29_102">
<rect width="36" height="14" fill="white" transform="translate(2 14.5)"/>
</clipPath>
</defs>
</svg>
